<?xml version="1.0" encoding="utf-8"?>
<!-- Generator: Adobe Illustrator 25.4.1, SVG Export Plug-In . SVG Version: 6.00 Build 0)  -->
<svg version="1.1" id="Capa_1" xmlns="http://www.w3.org/2000/svg" xmlns:xlink="http://www.w3.org/1999/xlink" x="0px" y="0px"
	 viewBox="0 0 512 512" style="enable-background:new 0 0 512 512;" xml:space="preserve">
<style type="text/css">
	.st0{fill:url(#SVGID_1_);}
	.st1{fill:url(#SVGID_00000016065415249068889060000006397487260883902871_);}
	.st2{fill:url(#SVGID_00000078024018435231390100000001584918974502704776_);}
</style>
<g>
	<g>
		<g>
			<g>
				<g>
					<linearGradient id="SVGID_1_" gradientUnits="userSpaceOnUse" x1="78.0375" y1="321.9791" x2="433.9625" y2="321.9791">
						<stop  offset="0" style="stop-color:#FFC341"/>
						<stop  offset="1" style="stop-color:#F6831B"/>
					</linearGradient>
					<path class="st0" d="M78,154.6v75.1h11.6c5.8,0,10.4,4.7,10.4,10.4v101.2c0,35.2,18.8,68,49.2,85.7L256,489.4l106.8-62.3
						c30.3-17.7,49.2-50.5,49.2-85.7V240.2c0-5.8,4.7-10.4,10.4-10.4H434v-75.1H78z M421.1,216.9c-12.2,0.7-22,10.9-22,23.3v101.2
						c0,30.6-16.4,59.2-42.8,74.5L256,474.4l-100.3-58.5c-26.4-15.4-42.8-44-42.8-74.5V240.2c0-12.4-9.8-22.6-22-23.3v-49.4h330.2
						V216.9z"/>
				</g>
			</g>
		</g>
		
			<linearGradient id="SVGID_00000122683025567500000060000016796974006831772057_" gradientUnits="userSpaceOnUse" x1="123.6722" y1="321.9794" x2="388.2507" y2="321.9794">
			<stop  offset="0" style="stop-color:#771461"/>
			<stop  offset="1" style="stop-color:#3A0A31"/>
		</linearGradient>
		<path style="fill:url(#SVGID_00000122683025567500000060000016796974006831772057_);" d="M388.2,294.4V180H123.7v71.4
			c0.1,0.4,0.1,0.8,0.1,1.2v85.8c0,22.2,8.8,43.3,23.9,58.8c5.2,5.4,11.2,10.1,17.8,13.9l46.1,26.9l44.4,25.9l44.8-26.1l45.8-26.7
			c2.5-1.5,4.9-3,7.2-4.7c0.3-0.2,0.6-0.4,0.9-0.7c0.2-0.2,0.5-0.3,0.7-0.5c0.3-0.2,0.6-0.4,0.8-0.7c0.3-0.2,0.6-0.5,0.9-0.7
			c2.9-2.3,5.6-4.9,8.1-7.5c0.2-0.2,0.4-0.5,0.7-0.7c0.7-0.7,1.3-1.5,2-2.2c0.2-0.3,0.5-0.5,0.7-0.8c0,0,0.1-0.1,0.1-0.1
			c0.3-0.3,0.5-0.7,0.8-1c0.3-0.4,0.6-0.7,0.8-1.1c0.2-0.3,0.4-0.5,0.6-0.8c0.9-1.2,1.8-2.4,2.6-3.6c0.4-0.7,0.9-1.3,1.3-2
			c0.3-0.4,0.5-0.8,0.8-1.2c1-1.6,2-3.3,2.8-4.9c0.4-0.8,0.8-1.6,1.2-2.4c0.2-0.4,0.4-0.8,0.6-1.2c0.2-0.4,0.4-0.8,0.6-1.2
			c0.2-0.4,0.4-0.8,0.6-1.2c0.2-0.4,0.3-0.7,0.4-1.1c0.1-0.1,0.1-0.3,0.2-0.4c0.1-0.3,0.3-0.7,0.4-1c0.2-0.4,0.3-0.8,0.5-1.3
			c0.2-0.4,0.3-0.8,0.5-1.3c0.1-0.4,0.3-0.8,0.4-1.3c0.5-1.5,1-3,1.4-4.5c0.1-0.2,0.1-0.5,0.2-0.7c0.2-0.6,0.3-1.2,0.5-1.8
			c0.1-0.3,0.2-0.7,0.3-1c0.1-0.5,0.2-1,0.3-1.4c0.1-0.4,0.2-0.8,0.2-1.1c0.1-0.4,0.1-0.7,0.2-1.1c0-0.1,0-0.2,0-0.2
			c0.1-0.4,0.2-0.9,0.2-1.3c0.1-0.4,0.1-0.8,0.2-1.2c0-0.1,0-0.3,0.1-0.4c0-0.2,0.1-0.5,0.1-0.7c0-0.3,0.1-0.6,0.1-0.9
			c0-0.1,0-0.2,0-0.4c0-0.3,0.1-0.7,0.1-1c0-0.2,0-0.3,0.1-0.5c0-0.4,0.1-0.7,0.1-1.1c0-0.1,0-0.2,0-0.3c0-0.4,0.1-0.8,0.1-1.2
			c0-0.3,0-0.6,0.1-0.8c0-0.4,0-0.7,0.1-1.1c0.1-1.4,0.1-2.8,0.1-4.2L388.2,294.4L388.2,294.4z M149.7,382.8
			c-9.6-12.6-15.1-28.2-15.1-44.4v-85.8c0-0.2,0-0.3,0-0.5v-10.7l169.3-7.1c-22,20.3-46.1,43-72.4,68.3
			C206,327.2,178.7,354,149.7,382.8z M377.3,338.4c0,0.4,0,0.9,0,1.3c0,0.2,0,0.5,0,0.7c0,0.2,0,0.4,0,0.6c0,0.2,0,0.4,0,0.6
			c0,0.4,0,0.9-0.1,1.3c0,0.4-0.1,0.8-0.1,1.2c-0.1,0.7-0.1,1.4-0.2,2.2c0,0.3-0.1,0.6-0.1,0.9c0,0.2,0,0.4-0.1,0.6
			c0,0.2-0.1,0.4-0.1,0.7c0,0.3-0.1,0.5-0.1,0.8c-0.1,0.8-0.3,1.6-0.4,2.4c0,0.3-0.1,0.6-0.2,0.9c0,0.2-0.1,0.4-0.1,0.6
			c0,0.3-0.1,0.5-0.2,0.8c0,0.1,0,0.2-0.1,0.3c-0.1,0.3-0.1,0.6-0.2,0.9c-0.2,0.8-0.4,1.6-0.6,2.4c-0.1,0.3-0.2,0.7-0.3,1
			c0,0,0,0.1,0,0.1c-0.1,0.3-0.2,0.6-0.3,1c0,0.1-0.1,0.2-0.1,0.3c-0.1,0.3-0.2,0.6-0.3,0.9c-0.2,0.8-0.5,1.5-0.8,2.2
			c-0.1,0.3-0.2,0.6-0.3,0.9c0,0.1-0.1,0.2-0.1,0.4c-0.1,0.3-0.2,0.7-0.4,1c-0.1,0.4-0.3,0.7-0.4,1.1c-0.5,1.2-1,2.3-1.5,3.4
			c-0.1,0.3-0.3,0.6-0.4,0.9c-0.2,0.4-0.3,0.7-0.5,1.1c-0.2,0.3-0.4,0.7-0.5,1c-0.2,0.3-0.4,0.7-0.6,1c-0.2,0.3-0.3,0.6-0.5,0.9
			c-0.2,0.3-0.3,0.6-0.5,0.8c-0.2,0.4-0.5,0.8-0.7,1.2c-0.2,0.4-0.5,0.8-0.7,1.1c-0.1,0.2-0.2,0.3-0.3,0.5c-0.2,0.3-0.4,0.6-0.6,0.8
			c0,0,0,0,0,0c-0.3,0.4-0.5,0.8-0.8,1.2c-0.2,0.3-0.5,0.7-0.7,1c-0.3,0.5-0.7,0.9-1,1.4h-116c15-9.6,90.4-73.1,131-108V338.4z"/>
		
			<linearGradient id="SVGID_00000133524706445157371570000013162006320573962632_" gradientUnits="userSpaceOnUse" x1="121.0138" y1="83.8183" x2="391.6735" y2="83.8183">
			<stop  offset="0" style="stop-color:#FFC341"/>
			<stop  offset="1" style="stop-color:#F6831B"/>
		</linearGradient>
		<path style="fill:url(#SVGID_00000133524706445157371570000013162006320573962632_);" d="M391.7,117.8c0,0-6.1-6.3-18.4-1.3
			c-2.3,0.9-4.7,4-7.1,8.3c-2.9,5.3-5.7,12.5-8.3,20.1h-203c-4.7-13.9-10.3-26.3-15.4-28.4c-12.3-5-18.4,1.3-18.4,1.3
			s3.4-18.1,16.1-18c12.8,0.2,13.3,9.4,13.3,9.4s1.2-5.1,8.9-5.2c7.7-0.2,8.6,6.9,8.6,6.9c-4.3-2.7-8.4,0.6-8.6,5.1
			c-0.2,4.6,5.6,15.7,21.2,11.5c15.6-4.2,12.6-22.3,12.6-22.3s-3.9,6.1-9.2,4.6c-5.3-1.4-6.2-21.9,10.4-24.2
			c16.6-2.3,20.8,16.6,17.4,18.7c-3.4,2.2-10.1-0.8-10.1-0.8s7.8,18,22.7,16.7c14.9-1.3,22.2-18,18-20.6c-4.1-2.5-6,1.9-10.1,0.6
			c-4.1-1.3-3.4-15.6,8.2-16.7c10.2-1,14.4,8,15.3,10.2c-11-38.8-23.7-36.1-23.7-36.1c3.4-11.1,12.1-7,12.4-6.9
			c-0.1-0.3-5.5-13.7,11.8-28.3c17.4,14.6,12,28,11.8,28.3c0.3-0.1,9.1-4.2,12.4,6.9c0,0-12.7-2.7-23.7,36.1
			c0.9-2.2,5-11.2,15.3-10.2c11.6,1.1,12.3,15.4,8.2,16.7c-4.1,1.4-6-3.1-10.1-0.6c-4.1,2.5,3.2,19.3,18,20.6
			c14.9,1.4,22.7-16.7,22.7-16.7s-6.7,3-10.1,0.8c-3.4-2.1,0.8-21,17.4-18.7c16.6,2.3,15.7,22.8,10.4,24.2c-5.2,1.5-9.2-4.6-9.2-4.6
			s-3.1,18.1,12.6,22.3c15.6,4.2,21.4-6.9,21.2-11.5c-0.3-4.6-4.3-7.9-8.6-5.1c0,0,0.9-7.1,8.6-6.9c7.7,0.1,8.9,5.2,8.9,5.2
			s0.5-9.3,13.3-9.4C388.3,99.7,391.7,117.8,391.7,117.8z"/>
	</g>
</g>
</svg>
