<?xml version="1.0" encoding="utf-8"?>
<!-- Generator: Adobe Illustrator 25.4.1, SVG Export Plug-In . SVG Version: 6.00 Build 0)  -->
<svg version="1.1" id="Layer_1" xmlns="http://www.w3.org/2000/svg" xmlns:xlink="http://www.w3.org/1999/xlink" x="0px" y="0px"
	 viewBox="0 0 46.8 31.5" style="enable-background:new 0 0 46.8 31.5;" xml:space="preserve">
<style type="text/css">
	.st0{fill:url(#SVGID_1_);}
	.st1{fill:url(#SVGID_00000129917994188038055990000017046355703266311090_);}
	.st2{fill:url(#SVGID_00000106115472875855402220000009160910599373919669_);}
	.st3{fill:url(#SVGID_00000074402357430210561860000001466314333675595661_);}
	.st4{fill:url(#SVGID_00000137132076334171361850000005949514205311465607_);}
</style>
<g>
	<g>
		<g>
			<g>
				
					<linearGradient id="SVGID_1_" gradientUnits="userSpaceOnUse" x1="11.8379" y1="13.95" x2="34.9621" y2="13.95" gradientTransform="matrix(1 0 0 -1 0 34)">
					<stop  offset="0" style="stop-color:#FFC341"/>
					<stop  offset="1" style="stop-color:#F6831B"/>
				</linearGradient>
				<path class="st0" d="M11.8,9.2V14h0.8c0.4,0,0.7,0.3,0.7,0.7v6.6c0,2.3,1.2,4.4,3.2,5.6l6.9,4l6.9-4c2-1.2,3.2-3.3,3.2-5.6v-6.6
					c0-0.4,0.3-0.7,0.7-0.7H35V9.2H11.8z M34.1,13.2c-0.8,0-1.4,0.7-1.4,1.5v6.6c0,2-1.1,3.8-2.8,4.8l-6.5,3.8l-6.5-3.8
					c-1.7-1-2.8-2.9-2.8-4.8v-6.6c0-0.8-0.6-1.5-1.4-1.5V10h21.5L34.1,13.2L34.1,13.2z"/>
			</g>
		</g>
	</g>
	
		<linearGradient id="SVGID_00000018222256106265125300000006332749556381086141_" gradientUnits="userSpaceOnUse" x1="31.3" y1="12.76" x2="31.31" y2="12.76" gradientTransform="matrix(1 0 0 -1 0 34)">
		<stop  offset="0" style="stop-color:#771461"/>
		<stop  offset="1" style="stop-color:#3A0A31"/>
	</linearGradient>
	<path style="fill:url(#SVGID_00000018222256106265125300000006332749556381086141_);" d="M31.3,21.1L31.3,21.1c0,0.1,0,0.1,0,0.1
		v0.2C31.3,21.3,31.3,21.2,31.3,21.1L31.3,21.1L31.3,21.1z"/>
	
		<linearGradient id="SVGID_00000007421371175188220010000014096711227045482683_" gradientUnits="userSpaceOnUse" x1="14.63" y1="29.4" x2="32.23" y2="29.4" gradientTransform="matrix(1 0 0 -1 0 34)">
		<stop  offset="0" style="stop-color:#FFC341"/>
		<stop  offset="1" style="stop-color:#F6831B"/>
	</linearGradient>
	<path style="fill:url(#SVGID_00000007421371175188220010000014096711227045482683_);" d="M32.2,6.8c0,0-0.4-0.4-1.2-0.1
		c-0.2,0.1-0.3,0.3-0.5,0.5C30.4,7.6,30.2,8,30,8.5H16.8c-0.3-0.9-0.7-1.7-1-1.8c-0.8-0.3-1.2,0.1-1.2,0.1s0.2-1.2,1-1.2
		s0.9,0.6,0.9,0.6s0.1-0.3,0.6-0.3s0.6,0.5,0.6,0.5c-0.3-0.2-0.5,0-0.6,0.3c0,0.3,0.4,1,1.4,0.7S19.3,6,19.3,6S19,6.4,18.7,6.3
		c-0.3-0.1-0.4-1.4,0.7-1.6c1.1-0.1,1.3,1.1,1.1,1.2c-0.2,0.1-0.7-0.1-0.7-0.1s0.5,1.2,1.5,1.1c1-0.1,1.4-1.2,1.2-1.3
		c-0.3-0.2-0.4,0.1-0.7,0c-0.3-0.1-0.2-1,0.5-1.1s0.9,0.5,1,0.7c-0.7-2.5-1.5-2.3-1.5-2.3c0.2-0.7,0.8-0.5,0.8-0.4
		c0,0-0.4-0.9,0.8-1.8c1.1,1,0.8,1.8,0.8,1.8s0.6-0.3,0.8,0.4c0,0-0.8-0.2-1.5,2.3c0.1-0.1,0.3-0.7,1-0.7c0.8,0.1,0.8,1,0.5,1.1
		s-0.4-0.2-0.7,0c-0.3,0.2,0.2,1.3,1.2,1.3c1,0.1,1.5-1,1.5-1S26.6,6.1,26.3,6c-0.2-0.1,0.1-1.4,1.1-1.2c1.1,0.1,1,1.5,0.7,1.6
		c-0.3,0-0.6-0.4-0.6-0.4s-0.2,1.2,0.8,1.4c1,0.3,1.4-0.4,1.4-0.7c0-0.3-0.3-0.5-0.6-0.3c0,0,0.1-0.5,0.6-0.5s0.6,0.3,0.6,0.3
		s0-0.6,0.9-0.6C32,5.6,32.2,6.8,32.2,6.8z"/>
	
		<linearGradient id="SVGID_00000057840259569439777490000007224540315787847343_" gradientUnits="userSpaceOnUse" x1="28.3884" y1="26.6518" x2="28.3884" y2="26.6518">
		<stop  offset="0" style="stop-color:#771461"/>
		<stop  offset="1" style="stop-color:#3A0A31"/>
	</linearGradient>
	<path style="fill:url(#SVGID_00000057840259569439777490000007224540315787847343_);" d="M28.4,26.7"/>
	
		<linearGradient id="SVGID_00000173136141677098863590000007330884586403308729_" gradientUnits="userSpaceOnUse" x1="14.8" y1="19.995" x2="32.01" y2="19.995">
		<stop  offset="0" style="stop-color:#771461"/>
		<stop  offset="1" style="stop-color:#3A0A31"/>
	</linearGradient>
	<path style="fill:url(#SVGID_00000173136141677098863590000007330884586403308729_);" d="M29.3,10.8L29.3,10.8l-14.5,0v10.3
		c0,1.4,0.6,2.8,1.6,3.8c0.3,0.3,0.6,0.6,1.1,0.8c0,0,0.1,0.1,0.1,0.1l3,1.7l2.9,1.7l2.9-1.7l3-1.7c0,0,0.1,0,0.1-0.1
		c0,0,0.1,0,0.1-0.1c0.3-0.2,0.5-0.5,0.8-0.7c0.2-0.1,0.3-0.3,0.4-0.5c0.1-0.2,0.3-0.3,0.4-0.5c0.2-0.2,0.3-0.5,0.4-0.8
		c0.3-0.6,0.4-1.3,0.4-2V10.8H29.3z M21.8,18.7c-1.3,1.4-2.8,2.8-4.3,4.3c-0.3,0.3-0.7,0.6-1,1c-0.6-0.8-1-1.8-1-2.9v-6.3l2-0.1
		l9-0.4C25.1,15.6,23.5,17.1,21.8,18.7z M31.3,21.2c0,0.1,0,0.1,0,0.2c0,0.8-0.3,1.5-0.7,2.2v0l0,0.1c-0.1,0.2-0.2,0.3-0.3,0.5l0,0
		l-0.2,0.3l-0.8,0.1h-5.8c0.9-0.5,5.1-4,7.8-6.4V21.2z"/>
</g>
</svg>
