<?xml version="1.0" encoding="utf-8"?>
<!-- Generator: Adobe Illustrator 25.4.1, SVG Export Plug-In . SVG Version: 6.00 Build 0)  -->
<svg version="1.1" id="Layer_1" xmlns="http://www.w3.org/2000/svg" xmlns:xlink="http://www.w3.org/1999/xlink" x="0px" y="0px"
	 viewBox="0 0 46.8 51.7" style="enable-background:new 0 0 46.8 51.7;" xml:space="preserve">
<style type="text/css">
	.st0{fill:#FFFFFF;}
</style>
<g>
	<g>
		<g>
			<g>
				<path class="st0" d="M3.8,14.7V23h1.3c0.6,0,1.1,0.5,1.1,1.1v11.1c0,3.9,2.1,7.5,5.4,9.4l11.7,6.9l11.7-6.9
					c3.3-2,5.4-5.6,5.4-9.4V24.1c0-0.6,0.5-1.1,1.1-1.1H43v-8.3H3.8z M41.6,21.6c-1.3,0.1-2.4,1.2-2.4,2.6v11.1
					c0,3.4-1.8,6.5-4.7,8.2l-11,6.4l-11-6.4c-2.9-1.7-4.7-4.8-4.7-8.2V24.1c0-1.4-1.1-2.5-2.4-2.6v-5.4h36.3V21.6z"/>
			</g>
		</g>
	</g>
	<path class="st0" d="M37.9,30.1V17.5H8.8v7.9c0,0,0,0.1,0,0.1v9.4c0,2.4,1,4.8,2.6,6.5c0.6,0.6,1.2,1.1,2,1.5l5.1,3l4.9,2.9
		l4.9-2.9l5-2.9c0.3-0.2,0.5-0.3,0.8-0.5c0,0,0.1,0,0.1-0.1c0,0,0,0,0.1-0.1c0,0,0.1,0,0.1-0.1c0,0,0.1,0,0.1-0.1
		c0.3-0.3,0.6-0.5,0.9-0.8c0,0,0-0.1,0.1-0.1c0.1-0.1,0.1-0.2,0.2-0.2c0,0,0.1-0.1,0.1-0.1c0,0,0,0,0,0c0,0,0.1-0.1,0.1-0.1
		c0,0,0.1-0.1,0.1-0.1c0,0,0-0.1,0.1-0.1c0.1-0.1,0.2-0.3,0.3-0.4c0-0.1,0.1-0.1,0.1-0.2c0,0,0.1-0.1,0.1-0.1
		c0.1-0.2,0.2-0.4,0.3-0.5c0-0.1,0.1-0.2,0.1-0.3c0,0,0-0.1,0.1-0.1c0,0,0-0.1,0.1-0.1c0,0,0-0.1,0.1-0.1c0,0,0-0.1,0-0.1
		c0,0,0,0,0,0c0,0,0-0.1,0-0.1c0,0,0-0.1,0.1-0.1c0,0,0-0.1,0.1-0.1c0,0,0-0.1,0-0.1c0.1-0.2,0.1-0.3,0.2-0.5c0,0,0-0.1,0-0.1
		c0-0.1,0-0.1,0-0.2c0,0,0-0.1,0-0.1c0-0.1,0-0.1,0-0.2c0,0,0-0.1,0-0.1c0,0,0-0.1,0-0.1c0,0,0,0,0,0c0,0,0-0.1,0-0.1
		c0,0,0-0.1,0-0.1c0,0,0,0,0,0c0,0,0-0.1,0-0.1c0,0,0-0.1,0-0.1c0,0,0,0,0,0c0,0,0-0.1,0-0.1c0,0,0,0,0-0.1c0,0,0-0.1,0-0.1
		c0,0,0,0,0,0c0,0,0-0.1,0-0.1c0,0,0-0.1,0-0.1c0,0,0-0.1,0-0.1c0-0.2,0-0.3,0-0.5L37.9,30.1L37.9,30.1z M11.7,39.8
		c-1.1-1.4-1.7-3.1-1.7-4.9v-9.4c0,0,0,0,0-0.1v-1.2l18.6-0.8c-2.4,2.2-5.1,4.7-8,7.5C17.9,33.7,14.9,36.6,11.7,39.8z M36.7,34.9
		c0,0,0,0.1,0,0.1c0,0,0,0.1,0,0.1c0,0,0,0,0,0.1c0,0,0,0,0,0.1c0,0,0,0.1,0,0.1c0,0,0,0.1,0,0.1c0,0.1,0,0.2,0,0.2c0,0,0,0.1,0,0.1
		c0,0,0,0,0,0.1c0,0,0,0,0,0.1c0,0,0,0.1,0,0.1c0,0.1,0,0.2,0,0.3c0,0,0,0.1,0,0.1c0,0,0,0,0,0.1c0,0,0,0.1,0,0.1c0,0,0,0,0,0
		c0,0,0,0.1,0,0.1c0,0.1,0,0.2-0.1,0.3c0,0,0,0.1,0,0.1c0,0,0,0,0,0c0,0,0,0.1,0,0.1c0,0,0,0,0,0c0,0,0,0.1,0,0.1
		c0,0.1-0.1,0.2-0.1,0.2c0,0,0,0.1,0,0.1c0,0,0,0,0,0c0,0,0,0.1,0,0.1c0,0,0,0.1,0,0.1c-0.1,0.1-0.1,0.3-0.2,0.4c0,0,0,0.1,0,0.1
		c0,0,0,0.1-0.1,0.1c0,0,0,0.1-0.1,0.1c0,0,0,0.1-0.1,0.1c0,0,0,0.1-0.1,0.1c0,0,0,0.1-0.1,0.1c0,0-0.1,0.1-0.1,0.1
		c0,0-0.1,0.1-0.1,0.1c0,0,0,0,0,0.1c0,0,0,0.1-0.1,0.1c0,0,0,0,0,0c0,0-0.1,0.1-0.1,0.1c0,0-0.1,0.1-0.1,0.1c0,0.1-0.1,0.1-0.1,0.2
		H22.3c1.6-1.1,9.9-8,14.4-11.9V34.9z"/>
	<path class="st0" d="M38.3,10.7c0,0-0.7-0.7-2-0.1c-0.3,0.1-0.5,0.4-0.8,0.9c-0.3,0.6-0.6,1.4-0.9,2.2H12.3
		c-0.5-1.5-1.1-2.9-1.7-3.1c-1.4-0.6-2,0.1-2,0.1s0.4-2,1.8-2c1.4,0,1.5,1,1.5,1s0.1-0.6,1-0.6c0.9,0,0.9,0.8,0.9,0.8
		c-0.5-0.3-0.9,0.1-0.9,0.6c0,0.5,0.6,1.7,2.3,1.3c1.7-0.5,1.4-2.4,1.4-2.4s-0.4,0.7-1,0.5c-0.6-0.2-0.7-2.4,1.1-2.7
		c1.8-0.3,2.3,1.8,1.9,2.1c-0.4,0.2-1.1-0.1-1.1-0.1s0.9,2,2.5,1.8c1.6-0.1,2.4-2,2-2.3c-0.5-0.3-0.7,0.2-1.1,0.1
		c-0.5-0.1-0.4-1.7,0.9-1.8c1.1-0.1,1.6,0.9,1.7,1.1c-1.2-4.3-2.6-4-2.6-4c0.4-1.2,1.3-0.8,1.4-0.8c0,0-0.6-1.5,1.3-3.1
		c1.9,1.6,1.3,3.1,1.3,3.1c0,0,1-0.5,1.4,0.8c0,0-1.4-0.3-2.6,4c0.1-0.2,0.6-1.2,1.7-1.1c1.3,0.1,1.4,1.7,0.9,1.8
		c-0.5,0.2-0.7-0.3-1.1-0.1c-0.5,0.3,0.3,2.1,2,2.3c1.6,0.2,2.5-1.8,2.5-1.8s-0.7,0.3-1.1,0.1C28,9,28.4,6.9,30.2,7.1
		c1.8,0.3,1.7,2.5,1.1,2.7c-0.6,0.2-1-0.5-1-0.5s-0.3,2,1.4,2.4c1.7,0.5,2.4-0.8,2.3-1.3c0-0.5-0.5-0.9-0.9-0.6c0,0,0.1-0.8,0.9-0.8
		c0.8,0,1,0.6,1,0.6s0.1-1,1.5-1C38,8.7,38.3,10.7,38.3,10.7z"/>
</g>
</svg>
